<?xml version="1.0" encoding="utf-8" ?>
<svg xmlns="http://www.w3.org/2000/svg" xmlns:xlink="http://www.w3.org/1999/xlink" width="200" height="200">
	<path fill="#0FA66F" transform="scale(0.195312 0.195312)" d="M575.221 591.75L576.179 591.946C576.992 598.252 576.356 605.286 576.312 611.67L576.125 649.148L785.964 648.88L785.877 737.383L685.25 737.069L585.771 737.115L555.56 737.116C549.649 737.116 543.493 737.413 537.618 736.733C530.065 735.86 522.616 733.681 515.763 730.408C497.832 721.846 486.803 706.889 472.406 694.024L575.221 591.75Z"/>
	<path fill="#2ED390" transform="scale(0.195312 0.195312)" d="M575.217 425.25L575.784 425.344C576.419 430.309 576.057 435.66 576.059 440.676L576.046 469.146L748.423 468.986L748.082 556.879L574.398 556.32C571.173 558.18 567.924 562.188 565.229 564.826L543.789 586.016L454.725 674.481L425.62 645.269L396.673 616.516C390.028 616.519 327.193 616.531 327.177 616.545C326.688 616.982 325.841 619.47 325.452 620.25C321.97 627.235 317.127 632.007 309.879 635.056C302.054 638.348 292.928 638.09 285.125 634.801C277.538 631.603 270.891 624.557 267.94 616.913C264.988 609.267 265.265 600.235 268.64 592.762C272.011 585.299 278.083 579.324 285.78 576.46C293.754 573.494 302.724 573.675 310.476 577.254C319.373 581.362 323.828 588.362 327.152 597.2L382.805 596.974L396.714 597.007C398.376 597.012 400.872 597.343 402.443 597.027C403.104 596.894 554.172 444.217 575.217 425.25Z"/>
	<path fill="#2ED390" transform="scale(0.195312 0.195312)" d="M533.1 289.195L786.177 289.237C786.73 291.917 786.36 295.25 786.35 298.004L786.29 314.243L786.124 375.832C784.503 376.66 779.855 376.14 777.892 376.139L754.525 376.174L621.304 376.448L593.839 376.225C592.024 376.263 588.554 375.939 586.913 376.491C584.903 377.167 531.578 431.144 524.005 438.699L426.77 535.094L399.92 561.619C393.684 567.75 387.67 574.508 380.394 579.389L380.017 521.508L261.754 521.305C259.476 527.851 257.589 531.968 252.649 537.039C250.506 538.785 248.356 540.458 245.917 541.776C238.934 545.549 228.982 546.628 221.305 544.321L220.5 544.07L219.031 543.616C211.566 541.069 205.151 535.375 201.685 528.297C197.912 520.594 197.28 511.044 200.137 502.936C203.022 494.751 208.876 487.988 216.777 484.322C224.779 480.609 234.239 480.051 242.547 483.178C251.767 486.648 256.779 492.915 260.8 501.602L355.118 501.474C358.087 501.475 377.376 502.265 379.014 501.203C380.761 500.069 382.717 497.275 384.183 495.719L395.537 484.142L454.24 426.021L327.796 426.022C325.597 432.421 322.45 437.723 317.044 441.944C309.232 448.043 300.788 449.6 291.141 448.322C283.697 447.336 276.545 443.044 272.036 437.044C267.297 430.739 265.151 422.247 266.277 414.446L266.42 413.5C267.07 408.847 268.517 404.649 271.045 400.679C275.178 394.185 282.002 389.053 289.598 387.503C297.108 385.971 304.141 386.309 311.258 389.439C318.785 392.75 323.501 399.272 326.47 406.688L388.205 406.528L399.553 406.584C400.347 406.589 402.364 406.867 402.961 406.607C403.891 406.202 406.085 403.403 406.919 402.557L419.866 389.685L488.777 322.311L504.767 306.61C508.917 302.418 513.084 297.793 517.917 294.375C522.645 291.032 527.447 289.78 533.1 289.195Z"/>
</svg>
